<svg width="20" height="20" viewBox="0 0 20 20" fill="none" xmlns="http://www.w3.org/2000/svg">
<g id="vuesax/bold/3d-cube-scan">
<g id="3d-cube-scan">
<path id="Vector" d="M18.3334 8.12501C17.9917 8.12501 17.7084 7.84167 17.7084 7.50001V5.83334C17.7084 3.68334 16.3167 2.29167 14.1667 2.29167H5.83341C3.68341 2.29167 2.29175 3.68334 2.29175 5.83334V7.50001C2.29175 7.84167 2.00841 8.12501 1.66675 8.12501C1.32508 8.12501 1.04175 7.84167 1.04175 7.50001V5.83334C1.04175 2.96667 2.96675 1.04167 5.83341 1.04167H14.1667C17.0334 1.04167 18.9584 2.96667 18.9584 5.83334V7.50001C18.9584 7.84167 18.6751 8.12501 18.3334 8.12501Z" fill="#5E51D9"/>
<path id="Vector_2" d="M14.1667 18.9583H5.83341C2.96675 18.9583 1.04175 17.0333 1.04175 14.1667V12.5C1.04175 12.1583 1.32508 11.875 1.66675 11.875C2.00841 11.875 2.29175 12.1583 2.29175 12.5V14.1667C2.29175 16.3167 3.68341 17.7083 5.83341 17.7083H14.1667C16.3167 17.7083 17.7084 16.3167 17.7084 14.1667V12.5C17.7084 12.1583 17.9917 11.875 18.3334 11.875C18.6751 11.875 18.9584 12.1583 18.9584 12.5V14.1667C18.9584 17.0333 17.0334 18.9583 14.1667 18.9583Z" fill="#5E51D9"/>
<path id="Vector_3" d="M13.6666 6.84167L10.5332 5.15C10.1999 4.975 9.80822 4.975 9.47489 5.15L6.33322 6.84167C6.10822 6.96667 5.96655 7.20834 5.96655 7.475C5.96655 7.75 6.10822 7.99167 6.33322 8.11667L9.46655 9.80834C9.63322 9.9 9.81655 9.94167 9.99989 9.94167C10.1832 9.94167 10.3666 9.9 10.5332 9.80834L13.6666 8.11667C13.8916 7.99167 14.0332 7.75 14.0332 7.475C14.0332 7.20834 13.8916 6.96667 13.6666 6.84167Z" fill="#5E51D9"/>
<path id="Vector_4" d="M8.95 10.3917L6.03333 8.93334C5.80833 8.825 5.55 8.83334 5.33333 8.96667C5.125 9.1 5 9.325 5 9.575V12.3333C5 12.8083 5.26667 13.2417 5.69167 13.45L8.60833 14.9083C8.70833 14.9583 8.81667 14.9833 8.93333 14.9833C9.06667 14.9833 9.19167 14.95 9.30833 14.875C9.525 14.7417 9.65 14.5167 9.65 14.2667V11.5083C9.64167 11.0333 9.38333 10.6083 8.95 10.3917Z" fill="#5E51D9"/>
<path id="Vector_5" d="M14.6584 8.96667C14.4418 8.83334 14.1834 8.825 13.9584 8.93334L11.0418 10.3917C10.6168 10.6083 10.3501 11.0333 10.3501 11.5083V14.2667C10.3501 14.5167 10.4751 14.7417 10.6918 14.875C10.8084 14.95 10.9334 14.9833 11.0668 14.9833C11.1751 14.9833 11.2834 14.9583 11.3918 14.9083L14.3084 13.45C14.7334 13.2333 15.0001 12.8083 15.0001 12.3333V9.575C15.0001 9.325 14.8751 9.1 14.6584 8.96667Z" fill="#5E51D9"/>
</g>
</g>
</svg>
