<svg width="20" height="20" viewBox="0 0 20 20" fill="none" xmlns="http://www.w3.org/2000/svg">
<g id="vuesax/bold/box-tick">
<g id="box-tick">
<g id="Group">
<path id="Vector" d="M14.6667 4.425L9.9584 1.89167C9.4584 1.625 8.86673 1.625 8.36673 1.89167L3.66673 4.425C3.32507 4.61667 3.1084 4.98333 3.1084 5.38333C3.1084 5.79167 3.31673 6.15833 3.66673 6.34167L8.37507 8.875C8.62507 9.00833 8.90007 9.075 9.16673 9.075C9.4334 9.075 9.71673 9.00833 9.9584 8.875L14.6667 6.34167C15.0084 6.15833 15.2251 5.79167 15.2251 5.38333C15.2251 4.98333 15.0084 4.61667 14.6667 4.425Z" fill="#5E51D9"/>
<path id="Vector_2" d="M7.60008 9.75833L3.22508 7.575C2.88341 7.4 2.50008 7.425 2.17508 7.61667C1.85841 7.81667 1.66675 8.15833 1.66675 8.53333V12.6667C1.66675 13.3833 2.06675 14.025 2.70841 14.35L7.08341 16.5333C7.23341 16.6083 7.40008 16.65 7.56675 16.65C7.75841 16.65 7.95841 16.5917 8.13341 16.4917C8.45008 16.2917 8.64175 15.95 8.64175 15.575V11.4417C8.63341 10.725 8.23341 10.0833 7.60008 9.75833Z" fill="#5E51D9"/>
<path id="Vector_3" d="M16.6669 8.53333V10.5833C16.2669 10.4667 15.8419 10.4167 15.4169 10.4167C14.2835 10.4167 13.1752 10.8083 12.3002 11.5083C11.1002 12.45 10.4169 13.875 10.4169 15.4167C10.4169 15.825 10.4669 16.2333 10.5752 16.625C10.4502 16.6083 10.3252 16.5583 10.2085 16.4833C9.89186 16.2917 9.7002 15.95 9.7002 15.575V11.4417C9.7002 10.725 10.1002 10.0833 10.7335 9.75833L15.1085 7.575C15.4502 7.4 15.8335 7.425 16.1585 7.61667C16.4752 7.81667 16.6669 8.15833 16.6669 8.53333Z" fill="#5E51D9"/>
</g>
<path id="Vector_4" d="M18.3167 13.0583C17.6334 12.2167 16.5917 11.6833 15.4167 11.6833C14.5334 11.6833 13.7167 11.9917 13.0751 12.5083C12.2084 13.1917 11.6667 14.25 11.6667 15.4333C11.6667 16.1333 11.8667 16.8 12.2084 17.3667C12.4334 17.7417 12.7167 18.0667 13.0501 18.3333H13.0584C13.7001 18.8667 14.5251 19.1833 15.4167 19.1833C16.3667 19.1833 17.2251 18.8333 17.8834 18.25C18.1751 18 18.4251 17.7 18.6251 17.3667C18.9667 16.8 19.1667 16.1333 19.1667 15.4333C19.1667 14.5333 18.8501 13.7 18.3167 13.0583ZM17.3001 14.9667L15.3001 16.8167C15.1834 16.925 15.0251 16.9833 14.8751 16.9833C14.7167 16.9833 14.5584 16.925 14.4334 16.8L13.5084 15.875C13.2667 15.6333 13.2667 15.2333 13.5084 14.9917C13.7501 14.75 14.1501 14.75 14.3917 14.9917L14.8917 15.4917L16.4501 14.05C16.7001 13.8167 17.1001 13.8333 17.3334 14.0833C17.5751 14.3417 17.5584 14.7333 17.3001 14.9667Z" fill="#5E51D9"/>
</g>
</g>
</svg>
