<svg width="20" height="20" viewBox="0 0 20 20" fill="none" xmlns="http://www.w3.org/2000/svg">
    <g id="vuesax/outline/box">
        <g id="box">
            <path id="Vector"
                d="M9.99991 11.0833C9.89158 11.0833 9.78324 11.0583 9.68324 11L2.32492 6.74169C2.02492 6.56669 1.9249 6.18333 2.0999 5.88333C2.2749 5.58333 2.6499 5.48331 2.95823 5.65831L9.99991 9.73332L16.9999 5.68334C17.2999 5.50834 17.6832 5.61669 17.8582 5.90835C18.0332 6.20835 17.9249 6.59166 17.6332 6.76666L10.3249 11C10.2166 11.05 10.1082 11.0833 9.99991 11.0833Z"
                fill="#7F7F7F" />
            <path id="Vector_2"
                d="M10 18.6334C9.65833 18.6334 9.375 18.35 9.375 18.0084V10.45C9.375 10.1084 9.65833 9.82504 10 9.82504C10.3417 9.82504 10.625 10.1084 10.625 10.45V18.0084C10.625 18.35 10.3417 18.6334 10 18.6334Z"
                fill="#7F7F7F" />
            <path id="Vector_3"
                d="M10.0001 18.9583C9.26681 18.9583 8.54181 18.8 7.96681 18.4833L3.51681 16.0083C2.30848 15.3417 1.36682 13.7333 1.36682 12.35V7.64164C1.36682 6.2583 2.30848 4.65834 3.51681 3.98334L7.96681 1.51666C9.10847 0.883323 10.8918 0.883323 12.0335 1.51666L16.4835 3.99163C17.6918 4.6583 18.6335 6.26664 18.6335 7.64998V12.3583C18.6335 13.7417 17.6918 15.3416 16.4835 16.0166L12.0335 18.4833C11.4585 18.8 10.7335 18.9583 10.0001 18.9583ZM10.0001 2.29165C9.47514 2.29165 8.95848 2.39999 8.57515 2.60832L4.12515 5.0833C3.32515 5.5333 2.61682 6.72498 2.61682 7.64998V12.3583C2.61682 13.275 3.32515 14.475 4.12515 14.925L8.57515 17.4C9.33348 17.825 10.6668 17.825 11.4251 17.4L15.8751 14.925C16.6751 14.475 17.3835 13.2833 17.3835 12.3583V7.64998C17.3835 6.73331 16.6751 5.5333 15.8751 5.0833L11.4251 2.60832C11.0418 2.39999 10.5251 2.29165 10.0001 2.29165Z"
                fill="#7F7F7F" />
            <path id="Vector_4"
                d="M14.1669 11.6584C13.8252 11.6584 13.5419 11.375 13.5419 11.0334V8.35005L5.94186 3.96671C5.64186 3.79171 5.54184 3.40836 5.71684 3.1167C5.89184 2.8167 6.26686 2.71668 6.56686 2.89168L14.4752 7.45838C14.6669 7.56671 14.7919 7.77502 14.7919 8.00002V11.05C14.7919 11.375 14.5085 11.6584 14.1669 11.6584Z"
                fill="#7F7F7F" />
        </g>
    </g>
</svg>
