<svg width="20" height="20" viewBox="0 0 20 20" fill="none" xmlns="http://www.w3.org/2000/svg">
    <g id="vuesax/outline/3dcube">
        <g id="3dcube">
            <path id="Vector"
                d="M10 10.2083C9.63337 10.2083 9.26671 10.1167 8.93337 9.94167L3.50837 7.01667C3.01671 6.75001 2.70837 6.22501 2.70837 5.64167C2.70837 5.05834 3.01671 4.53334 3.50837 4.26667L8.93337 1.34167C9.60004 0.983338 10.4 0.983338 11.0584 1.34167L16.4834 4.26667C16.975 4.53334 17.2834 5.05834 17.2834 5.64167C17.2834 6.22501 16.975 6.75001 16.4834 7.01667L11.0584 9.94167C10.7334 10.125 10.3667 10.2083 10 10.2083ZM10 2.31667C9.84171 2.31667 9.67504 2.35834 9.52504 2.44167L4.10837 5.35834C3.96671 5.43334 3.95837 5.59167 3.95837 5.64167C3.95837 5.69167 3.96671 5.85001 4.10837 5.91667L9.53337 8.84167C9.83337 9 10.175 9 10.475 8.84167L15.9 5.91667C16.0334 5.84167 16.05 5.68334 16.05 5.64167C16.05 5.59167 16.0417 5.43334 15.9 5.36667L10.475 2.44167C10.325 2.35834 10.1584 2.31667 10 2.31667Z"
                fill="#5E51D9" />
            <path id="Vector_2"
                d="M8.14996 18.9333C7.91663 18.9333 7.67496 18.875 7.45829 18.7667L2.40829 16.25C1.56663 15.825 1.04163 14.975 1.04163 14.0333V9.26667C1.04163 8.725 1.31663 8.23333 1.77496 7.95C2.24163 7.66667 2.79996 7.64167 3.28329 7.88333L8.33329 10.4C9.17496 10.825 9.69996 11.6667 9.69996 12.6167V17.3833C9.69996 17.925 9.42496 18.4167 8.96663 18.7C8.71663 18.8583 8.43329 18.9333 8.14996 18.9333ZM2.59163 8.96667C2.52496 8.96667 2.46663 8.99167 2.43329 9.00833C2.38329 9.04167 2.29163 9.11667 2.29163 9.26667V14.0333C2.29163 14.5 2.54996 14.925 2.96663 15.1333L8.00829 17.6583C8.14163 17.725 8.24996 17.675 8.29996 17.65C8.34996 17.6167 8.44163 17.5417 8.44163 17.3917V12.625C8.44163 12.1583 8.18329 11.7333 7.76663 11.525L2.72496 9C2.67496 8.975 2.63329 8.96667 2.59163 8.96667Z"
                fill="#5E51D9" />
            <path id="Vector_3"
                d="M11.85 18.9333C11.5667 18.9333 11.2834 18.8583 11.0334 18.7C10.575 18.4167 10.3 17.925 10.3 17.3833V12.6167C10.3 11.675 10.825 10.825 11.6667 10.4L16.7084 7.875C17.1917 7.63334 17.7584 7.65834 18.2167 7.94167C18.675 8.225 18.95 8.71667 18.95 9.25834V14.025C18.95 14.9667 18.425 15.8167 17.5834 16.2417L12.5417 18.7667C12.325 18.8833 12.0834 18.9333 11.85 18.9333ZM17.4084 8.96667C17.3667 8.96667 17.325 8.975 17.275 9L12.2334 11.525C11.8167 11.7333 11.5584 12.15 11.5584 12.625V17.3917C11.5584 17.5417 11.65 17.6167 11.7 17.65C11.75 17.6833 11.8584 17.725 11.9917 17.6583L17.0334 15.1333C17.45 14.925 17.7084 14.5 17.7084 14.0333V9.26667C17.7084 9.11667 17.6167 9.04167 17.5667 9.00834C17.5334 8.99167 17.475 8.96667 17.4084 8.96667Z"
                fill="#5E51D9" />
        </g>
    </g>
</svg>
