<svg width="20" height="20" viewBox="0 0 20 20" fill="none" xmlns="http://www.w3.org/2000/svg">
<g id="vuesax/outline/bag-2">
<g id="bag-2">
<path id="Vector" d="M13.75 7.19167C13.4083 7.19167 13.125 6.90833 13.125 6.56667V5.41667C13.125 4.54167 12.75 3.69167 12.1 3.1C11.4417 2.5 10.5917 2.225 9.69167 2.30833C8.19167 2.45 6.875 3.98333 6.875 5.58333V6.39167C6.875 6.73333 6.59167 7.01667 6.25 7.01667C5.90833 7.01667 5.625 6.73333 5.625 6.39167V5.575C5.625 3.33333 7.43333 1.26667 9.575 1.05833C10.825 0.941667 12.025 1.33333 12.9417 2.175C13.85 3 14.375 4.18333 14.375 5.41667V6.56667C14.375 6.90833 14.0917 7.19167 13.75 7.19167Z" fill="#5E51D9"/>
<path id="Vector_2" d="M12.5001 18.9583H7.50009C3.65009 18.9583 2.93343 17.1667 2.75009 15.425L2.12509 10.4333C2.03343 9.53334 2.00009 8.24167 2.87509 7.275C3.62509 6.44167 4.86676 6.04167 6.66676 6.04167H13.3334C15.1418 6.04167 16.3834 6.45 17.1251 7.275C17.9918 8.24167 17.9668 9.53334 17.8751 10.4167L17.2501 15.425C17.0668 17.1667 16.3501 18.9583 12.5001 18.9583ZM6.66676 7.29167C5.25843 7.29167 4.29176 7.56667 3.80009 8.11667C3.39176 8.56667 3.25843 9.25834 3.36676 10.2917L3.99176 15.2833C4.13343 16.6167 4.50009 17.7167 7.50009 17.7167H12.5001C15.5001 17.7167 15.8668 16.625 16.0084 15.3L16.6334 10.2917C16.7418 9.27501 16.6084 8.58334 16.2001 8.12501C15.7084 7.56667 14.7418 7.29167 13.3334 7.29167H6.66676Z" fill="#5E51D9"/>
<path id="Vector_3" d="M12.85 10.9583C12.3833 10.9583 12.0083 10.5833 12.0083 10.125C12.0083 9.66667 12.3833 9.29167 12.8416 9.29167C13.3 9.29167 13.675 9.66667 13.675 10.125C13.675 10.5833 13.3083 10.9583 12.85 10.9583Z" fill="#5E51D9"/>
<path id="Vector_4" d="M7.01672 10.9583C6.55005 10.9583 6.17505 10.5833 6.17505 10.125C6.17505 9.66667 6.55005 9.29167 7.00838 9.29167C7.46672 9.29167 7.84172 9.66667 7.84172 10.125C7.84172 10.5833 7.47505 10.9583 7.01672 10.9583Z" fill="#5E51D9"/>
</g>
</g>
</svg>
