<svg width="21" height="20" viewBox="0 0 21 20" fill="none" xmlns="http://www.w3.org/2000/svg">
<g id="vuesax/outline/edit">
<g id="edit">
<path id="Vector" d="M13.1663 18.9583H8.16634C3.64134 18.9583 1.70801 17.025 1.70801 12.5V7.49999C1.70801 2.97499 3.64134 1.04166 8.16634 1.04166H9.83301C10.1747 1.04166 10.458 1.32499 10.458 1.66666C10.458 2.00832 10.1747 2.29166 9.83301 2.29166H8.16634C4.32467 2.29166 2.95801 3.65832 2.95801 7.49999V12.5C2.95801 16.3417 4.32467 17.7083 8.16634 17.7083H13.1663C17.008 17.7083 18.3747 16.3417 18.3747 12.5V10.8333C18.3747 10.4917 18.658 10.2083 18.9997 10.2083C19.3413 10.2083 19.6247 10.4917 19.6247 10.8333V12.5C19.6247 17.025 17.6913 18.9583 13.1663 18.9583Z" fill="#292D32"/>
<path id="Vector_2" d="M7.74962 14.7417C7.24129 14.7417 6.77462 14.5583 6.43295 14.225C6.02462 13.8167 5.84962 13.225 5.94129 12.6L6.29962 10.0917C6.36629 9.60832 6.68295 8.98332 7.02462 8.64165L13.5913 2.07499C15.2496 0.416655 16.933 0.416655 18.5913 2.07499C19.4996 2.98332 19.908 3.90832 19.8246 4.83332C19.7496 5.58332 19.3496 6.31665 18.5913 7.06665L12.0246 13.6333C11.683 13.975 11.058 14.2917 10.5746 14.3583L8.06629 14.7167C7.95795 14.7417 7.84962 14.7417 7.74962 14.7417ZM14.4746 2.95832L7.90795 9.52499C7.74962 9.68332 7.56629 10.05 7.53295 10.2667L7.17462 12.775C7.14129 13.0167 7.19129 13.2167 7.31629 13.3417C7.44129 13.4667 7.64129 13.5167 7.88295 13.4833L10.3913 13.125C10.608 13.0917 10.983 12.9083 11.133 12.75L17.6996 6.18332C18.2413 5.64165 18.5246 5.15832 18.5663 4.70832C18.6163 4.16665 18.333 3.59165 17.6996 2.94999C16.3663 1.61665 15.4496 1.99165 14.4746 2.95832Z" fill="#292D32"/>
<path id="Vector_3" d="M17.2083 8.19167C17.15 8.19167 17.0916 8.18334 17.0416 8.16667C14.85 7.55 13.1083 5.80834 12.4916 3.61667C12.4 3.28334 12.5916 2.94167 12.925 2.84167C13.2583 2.75 13.6 2.94167 13.6916 3.275C14.1916 5.05 15.6 6.45834 17.375 6.95834C17.7083 7.05 17.9 7.4 17.8083 7.73334C17.7333 8.01667 17.4833 8.19167 17.2083 8.19167Z" fill="#292D32"/>
</g>
</g>
</svg>
