<svg width="20" height="20" viewBox="0 0 20 20" fill="none" xmlns="http://www.w3.org/2000/svg">
<g id="vuesax/outline/filter">
<g id="filter">
<path id="Vector" d="M9.11658 18.875C8.71658 18.875 8.32492 18.775 7.95825 18.575C7.22492 18.1667 6.78325 17.425 6.78325 16.5917V12.175C6.78325 11.7583 6.50825 11.1333 6.24992 10.8167L3.13325 7.51667C2.60825 6.99167 2.20825 6.09167 2.20825 5.41667V3.5C2.20825 2.16667 3.21659 1.125 4.49992 1.125H15.4999C16.7666 1.125 17.7916 2.15 17.7916 3.41667V5.25C17.7916 6.125 17.2666 7.11667 16.7749 7.60833L13.1666 10.8C12.8166 11.0917 12.5416 11.7333 12.5416 12.25V15.8333C12.5416 16.575 12.0749 17.4333 11.4916 17.7833L10.3416 18.525C9.96659 18.7583 9.54158 18.875 9.11658 18.875ZM4.49992 2.375C3.91659 2.375 3.45825 2.86667 3.45825 3.5V5.41667C3.45825 5.725 3.70825 6.325 4.02492 6.64167L7.19992 9.98333C7.62492 10.5083 8.04158 11.3833 8.04158 12.1667V16.5833C8.04158 17.125 8.41658 17.3917 8.57492 17.475C8.92492 17.6667 9.34992 17.6667 9.67492 17.4667L10.8333 16.725C11.0666 16.5833 11.2999 16.1333 11.2999 15.8333V12.25C11.2999 11.3583 11.7333 10.375 12.3583 9.85L15.9249 6.69167C16.2083 6.40833 16.5499 5.73333 16.5499 5.24167V3.41667C16.5499 2.84167 16.0833 2.375 15.5083 2.375H4.49992Z" fill="#5E51D9"/>
<path id="Vector_2" d="M5.00006 8.95833C4.88339 8.95833 4.77506 8.925 4.66672 8.86666C4.37506 8.68333 4.28339 8.29166 4.46672 8L8.57506 1.41666C8.75839 1.125 9.14172 1.03333 9.43339 1.21666C9.72506 1.4 9.81672 1.78333 9.63339 2.075L5.52506 8.65833C5.40839 8.85 5.20839 8.95833 5.00006 8.95833Z" fill="#5E51D9"/>
</g>
</g>
</svg>
