<svg width="20" height="20" viewBox="0 0 20 20" fill="none" xmlns="http://www.w3.org/2000/svg">
<g id="vuesax/outline/logout">
<g id="logout">
<path id="Vector" d="M12.7 18.5583H12.5916C8.89164 18.5583 7.10831 17.1 6.79997 13.8333C6.76664 13.4917 7.01664 13.1833 7.36664 13.15C7.69997 13.1166 8.01664 13.375 8.04997 13.7167C8.29164 16.3333 9.52497 17.3083 12.6 17.3083H12.7083C16.1 17.3083 17.3 16.1083 17.3 12.7167V7.28332C17.3 3.89165 16.1 2.69165 12.7083 2.69165H12.6C9.50831 2.69165 8.27497 3.68332 8.04997 6.34998C8.00831 6.69165 7.71664 6.94998 7.36664 6.91665C7.01664 6.89165 6.76664 6.58332 6.79164 6.24165C7.07497 2.92498 8.86664 1.44165 12.5916 1.44165H12.7C16.7916 1.44165 18.5416 3.19165 18.5416 7.28332V12.7167C18.5416 16.8083 16.7916 18.5583 12.7 18.5583Z" fill="#A5A5A5"/>
<path id="Vector_2" d="M12.5001 10.625H3.01672C2.67506 10.625 2.39172 10.3417 2.39172 10C2.39172 9.65833 2.67506 9.375 3.01672 9.375H12.5001C12.8417 9.375 13.1251 9.65833 13.1251 10C13.1251 10.3417 12.8417 10.625 12.5001 10.625Z" fill="#A5A5A5"/>
<path id="Vector_3" d="M4.87503 13.4166C4.7167 13.4166 4.55837 13.3583 4.43337 13.2333L1.6417 10.4416C1.40003 10.2 1.40003 9.79997 1.6417 9.55831L4.43337 6.76664C4.67503 6.52497 5.07503 6.52497 5.3167 6.76664C5.55837 7.0083 5.55837 7.40831 5.3167 7.64997L2.9667 9.99997L5.3167 12.35C5.55837 12.5916 5.55837 12.9916 5.3167 13.2333C5.20003 13.3583 5.03337 13.4166 4.87503 13.4166Z" fill="#A5A5A5"/>
</g>
</g>
</svg>
