<svg width="20" height="20" viewBox="0 0 20 20" fill="none" xmlns="http://www.w3.org/2000/svg">
<g id="vuesax/bold/moneys">
<g id="moneys">
<path id="Vector" d="M15.975 5.53333C15.6167 3.725 14.2751 2.93333 12.4084 2.93333H5.09172C2.89172 2.93333 1.42505 4.03333 1.42505 6.6V10.8917C1.42505 12.7417 2.18338 13.825 3.43338 14.2917C3.61672 14.3583 3.81672 14.4167 4.02505 14.45C4.35838 14.525 4.71672 14.5583 5.09172 14.5583H12.4167C14.6167 14.5583 16.0834 13.4583 16.0834 10.8917V6.6C16.0834 6.20833 16.05 5.85833 15.975 5.53333ZM4.60838 10C4.60838 10.3417 4.32505 10.625 3.98338 10.625C3.64172 10.625 3.35838 10.3417 3.35838 10V7.5C3.35838 7.15833 3.64172 6.875 3.98338 6.875C4.32505 6.875 4.60838 7.15833 4.60838 7.5V10ZM8.75005 10.95C7.53338 10.95 6.55005 9.96667 6.55005 8.75C6.55005 7.53333 7.53338 6.55 8.75005 6.55C9.96672 6.55 10.95 7.53333 10.95 8.75C10.95 9.96667 9.96672 10.95 8.75005 10.95ZM14.1334 10C14.1334 10.3417 13.85 10.625 13.5084 10.625C13.1667 10.625 12.8834 10.3417 12.8834 10V7.5C12.8834 7.15833 13.1667 6.875 13.5084 6.875C13.85 6.875 14.1334 7.15833 14.1334 7.5V10Z" fill="#5E51D9"/>
<path id="Vector_2" d="M18.5834 9.10001V13.3917C18.5834 15.9583 17.1167 17.0667 14.9084 17.0667H7.59172C6.96672 17.0667 6.40838 16.975 5.92505 16.7917C5.53338 16.65 5.19172 16.4417 4.91672 16.175C4.76672 16.0333 4.88338 15.8083 5.09172 15.8083H12.4084C15.4917 15.8083 17.3251 13.975 17.3251 10.9V6.60001C17.3251 6.40001 17.5501 6.27501 17.6917 6.42501C18.2584 7.02501 18.5834 7.90001 18.5834 9.10001Z" fill="#5E51D9"/>
</g>
</g>
</svg>
