<svg width="20" height="20" viewBox="0 0 20 20" fill="none" xmlns="http://www.w3.org/2000/svg">
    <g id="vuesax/outline/receipt">
        <g id="receipt">
            <path id="Vector"
                d="M9.99996 18.9584C9.34996 18.9584 8.71663 18.625 8.28329 18.0417L7.44163 16.9167C7.26663 16.6834 7.03329 16.55 6.78329 16.5334C6.53329 16.525 6.28329 16.6334 6.08329 16.8417L5.60829 16.4167L6.06663 16.8417C4.86663 18.125 3.94163 18.025 3.49996 17.85C3.04996 17.675 2.29163 17.1 2.29163 15.25V5.86669C2.29163 2.16669 3.35829 1.04169 6.84996 1.04169H13.15C16.6416 1.04169 17.7083 2.16669 17.7083 5.86669V15.25C17.7083 17.0917 16.95 17.6667 16.5 17.85C16.0583 18.025 15.1416 18.125 13.9333 16.8417C13.7333 16.625 13.4916 16.5084 13.225 16.5334C12.975 16.55 12.7333 16.6834 12.5583 16.9167L11.7166 18.0417C11.2833 18.625 10.65 18.9584 9.99996 18.9584ZM6.73329 15.275C6.76663 15.275 6.80829 15.275 6.84163 15.275C7.45829 15.3084 8.04163 15.6334 8.43329 16.1584L9.27496 17.2834C9.68329 17.825 10.3083 17.825 10.7166 17.2834L11.5583 16.1584C11.9583 15.6334 12.5333 15.3084 13.1583 15.275C13.775 15.2417 14.3916 15.5 14.8416 15.9834C15.475 16.6584 15.8916 16.7417 16.0333 16.6834C16.2333 16.6 16.45 16.1167 16.45 15.25V5.86669C16.45 2.85835 15.925 2.29169 13.1416 2.29169H6.84996C4.06663 2.29169 3.54163 2.85835 3.54163 5.86669V15.25C3.54163 16.125 3.75829 16.6084 3.95829 16.6834C4.09996 16.7417 4.51663 16.6584 5.14996 15.9834C5.59996 15.525 6.15829 15.275 6.73329 15.275Z"
                fill="#7F7F7F" />
            <path id="Vector_2"
                d="M13.3333 6.45831H6.66663C6.32496 6.45831 6.04163 6.17498 6.04163 5.83331C6.04163 5.49165 6.32496 5.20831 6.66663 5.20831H13.3333C13.675 5.20831 13.9583 5.49165 13.9583 5.83331C13.9583 6.17498 13.675 6.45831 13.3333 6.45831Z"
                fill="#7F7F7F" />
            <path id="Vector_3"
                d="M12.5 9.79169H7.5C7.15833 9.79169 6.875 9.50835 6.875 9.16669C6.875 8.82502 7.15833 8.54169 7.5 8.54169H12.5C12.8417 8.54169 13.125 8.82502 13.125 9.16669C13.125 9.50835 12.8417 9.79169 12.5 9.79169Z"
                fill="#7F7F7F" />
        </g>
    </g>
</svg>
