<svg width="20" height="20" viewBox="0 0 20 20" fill="none" xmlns="http://www.w3.org/2000/svg">
<g id="vuesax/outline/convert-3d-cube">
<g id="convert-3d-cube">
<path id="Vector" d="M12.5001 18.9583C12.2751 18.9583 12.0667 18.8333 11.9584 18.6417C11.8501 18.45 11.8501 18.2083 11.9667 18.0167L12.8417 16.5583C13.0167 16.2583 13.4001 16.1667 13.7001 16.3417C14.0001 16.5167 14.0917 16.9 13.9167 17.2L13.6917 17.575C15.9917 17.0334 17.7167 14.9667 17.7167 12.5C17.7167 12.1583 18.0001 11.875 18.3417 11.875C18.6834 11.875 18.9667 12.1583 18.9667 12.5C18.9584 16.0583 16.0584 18.9583 12.5001 18.9583Z" fill="#5E51D9"/>
<path id="Vector_2" d="M1.66675 8.12508C1.32508 8.12508 1.04175 7.84175 1.04175 7.50008C1.04175 3.94175 3.94175 1.04175 7.50008 1.04175C7.72508 1.04175 7.93341 1.16675 8.04174 1.35842C8.15008 1.55009 8.15008 1.79175 8.03341 1.98342L7.15841 3.44175C6.98341 3.74175 6.60008 3.83343 6.30008 3.65843C6.00008 3.48343 5.90842 3.10007 6.08342 2.80007L6.30842 2.42506C4.00842 2.96673 2.28342 5.03341 2.28342 7.50008C2.29175 7.84175 2.00841 8.12508 1.66675 8.12508Z" fill="#5E51D9"/>
<path id="Vector_3" d="M14.7332 6.25002C14.6249 6.25002 14.5166 6.22504 14.4166 6.1667L11.1082 4.25C10.8082 4.075 10.7082 3.69169 10.8832 3.39169C11.0582 3.09169 11.4416 2.99167 11.7332 3.16667L14.7332 4.90002L17.7082 3.17501C18.0082 3.00001 18.3916 3.10836 18.5582 3.40003C18.7332 3.70003 18.6249 4.08334 18.3332 4.25834L15.0416 6.15836C14.9499 6.2167 14.8416 6.25002 14.7332 6.25002Z" fill="#5E51D9"/>
<path id="Vector_4" d="M14.7334 9.64147C14.3917 9.64147 14.1084 9.35814 14.1084 9.01647V5.61646C14.1084 5.27479 14.3917 4.99146 14.7334 4.99146C15.0751 4.99146 15.3584 5.27479 15.3584 5.61646V9.01647C15.3584 9.36647 15.0751 9.64147 14.7334 9.64147Z" fill="#5E51D9"/>
<path id="Vector_5" d="M14.7333 9.79158C14.35 9.79158 13.9583 9.70825 13.65 9.53325L11.65 8.4249C11 8.06657 10.5083 7.22494 10.5083 6.48327V4.36657C10.5083 3.61657 11 2.78327 11.6583 2.4166L13.6583 1.30825C14.275 0.966585 15.2 0.966585 15.825 1.30825L17.825 2.4166C18.475 2.77493 18.9666 3.61656 18.9666 4.35823V6.47493C18.9666 7.22493 18.475 8.05823 17.825 8.41656L15.825 9.52491C15.5 9.70824 15.1166 9.79158 14.7333 9.79158ZM14.2583 2.39158L12.2583 3.49992C12.0083 3.64159 11.7583 4.06655 11.7583 4.34989V6.46659C11.7583 6.75825 12.0083 7.18327 12.2583 7.3166L14.2583 8.43324C14.5 8.56658 14.9666 8.56658 15.2083 8.43324L17.2083 7.32489C17.4583 7.18323 17.7083 6.75826 17.7083 6.47493V4.35823C17.7083 4.06656 17.4583 3.6416 17.2083 3.50826L15.2083 2.39992C14.9666 2.25825 14.4916 2.25824 14.2583 2.39158Z" fill="#5E51D9"/>
<path id="Vector_6" d="M5.26669 15.4165C5.15835 15.4165 5.05001 15.3915 4.95001 15.3332L1.64168 13.4165C1.34168 13.2415 1.24168 12.8582 1.41668 12.5582C1.59168 12.2582 1.97501 12.1582 2.26668 12.3332L5.26669 14.0665L8.24168 12.3415C8.54168 12.1665 8.92502 12.2749 9.09168 12.5665C9.26668 12.8665 9.15835 13.2498 8.86668 13.4248L5.57501 15.3249C5.48335 15.3832 5.37502 15.4165 5.26669 15.4165Z" fill="#5E51D9"/>
<path id="Vector_7" d="M5.2666 18.8082C4.92493 18.8082 4.6416 18.5249 4.6416 18.1832V14.7832C4.6416 14.4415 4.92493 14.1582 5.2666 14.1582C5.60827 14.1582 5.8916 14.4415 5.8916 14.7832V18.1832C5.8916 18.5332 5.6166 18.8082 5.2666 18.8082Z" fill="#5E51D9"/>
<path id="Vector_8" d="M5.26675 18.9583C4.88342 18.9583 4.49175 18.875 4.18342 18.7L2.18341 17.5916C1.53341 17.2333 1.04175 16.3916 1.04175 15.65V13.5333C1.04175 12.7833 1.53341 11.9499 2.18341 11.5916L4.18342 10.4833C4.80009 10.1416 5.73341 10.1416 6.35008 10.4833L8.35009 11.5916C9.00009 11.9499 9.49175 12.7916 9.49175 13.5333V15.65C9.49175 16.4 9.00008 17.2333 8.34174 17.5999L6.34175 18.7083C6.04175 18.875 5.65842 18.9583 5.26675 18.9583ZM4.79175 11.5583L2.79175 12.6666C2.54175 12.8083 2.29175 13.2333 2.29175 13.5166V15.6333C2.29175 15.925 2.54175 16.35 2.79175 16.4833L4.79175 17.5916C5.03341 17.7249 5.50008 17.7249 5.74175 17.5916L7.74174 16.4833C7.99174 16.3416 8.24175 15.9166 8.24175 15.6333V13.5166C8.24175 13.2249 7.99174 12.8 7.74174 12.6666L5.74175 11.5499C5.50841 11.4249 5.03341 11.4249 4.79175 11.5583Z" fill="#5E51D9"/>
</g>
</g>
</svg>
