<svg width="21" height="20" viewBox="0 0 21 20" fill="none" xmlns="http://www.w3.org/2000/svg">
<g id="vuesax/outline/trash">
<g id="trash">
<path id="Vector" d="M18.1666 5.60833C18.1499 5.60833 18.1249 5.60833 18.0999 5.60833C13.6916 5.16667 9.29156 5 4.93322 5.44167L3.23322 5.60833C2.88322 5.64167 2.57489 5.39167 2.54156 5.04167C2.50822 4.69167 2.75822 4.39167 3.09989 4.35833L4.79989 4.19167C9.23322 3.74167 13.7249 3.91667 18.2249 4.35833C18.5666 4.39167 18.8166 4.7 18.7832 5.04167C18.7582 5.36667 18.4832 5.60833 18.1666 5.60833Z" fill="#FF0000"/>
<path id="Vector_2" d="M7.74964 4.76666C7.71631 4.76666 7.68297 4.76666 7.64131 4.75832C7.30797 4.69999 7.07464 4.37499 7.13298 4.04166L7.31631 2.94999C7.44964 2.14999 7.63297 1.04166 9.57464 1.04166H11.758C13.708 1.04166 13.8913 2.19166 14.0163 2.95832L14.1996 4.04166C14.258 4.38332 14.0246 4.70832 13.6913 4.75832C13.3496 4.81666 13.0246 4.58332 12.9746 4.24999L12.7913 3.16666C12.6746 2.44166 12.6496 2.29999 11.7663 2.29999H9.58297C8.69964 2.29999 8.68298 2.41666 8.55798 3.15832L8.36631 4.24166C8.31631 4.54999 8.04964 4.76666 7.74964 4.76666Z" fill="#FF0000"/>
<path id="Vector_3" d="M13.3415 18.9583H7.9915C5.08317 18.9583 4.9665 17.35 4.87483 16.05L4.33317 7.65833C4.30817 7.31667 4.57483 7.01667 4.9165 6.99167C5.2665 6.975 5.55817 7.23334 5.58317 7.575L6.12483 15.9667C6.2165 17.2333 6.24983 17.7083 7.9915 17.7083H13.3415C15.0915 17.7083 15.1248 17.2333 15.2082 15.9667L15.7498 7.575C15.7748 7.23334 16.0748 6.975 16.4165 6.99167C16.7582 7.01667 17.0248 7.30833 16.9998 7.65833L16.4582 16.05C16.3665 17.35 16.2498 18.9583 13.3415 18.9583Z" fill="#FF0000"/>
<path id="Vector_4" d="M12.0499 14.375H9.2749C8.93324 14.375 8.6499 14.0917 8.6499 13.75C8.6499 13.4083 8.93324 13.125 9.2749 13.125H12.0499C12.3916 13.125 12.6749 13.4083 12.6749 13.75C12.6749 14.0917 12.3916 14.375 12.0499 14.375Z" fill="#FF0000"/>
<path id="Vector_5" d="M12.7497 11.0417H8.58301C8.24134 11.0417 7.95801 10.7583 7.95801 10.4167C7.95801 10.075 8.24134 9.79166 8.58301 9.79166H12.7497C13.0913 9.79166 13.3747 10.075 13.3747 10.4167C13.3747 10.7583 13.0913 11.0417 12.7497 11.0417Z" fill="#FF0000"/>
</g>
</g>
</svg>
