<svg width="25" height="24" viewBox="0 0 25 24" fill="none" xmlns="http://www.w3.org/2000/svg">
<g id="Frame">
<path id="Vector" d="M12.5 16.5V9.75004M12.5 9.75004L15.5 12.75M12.5 9.75004L9.50001 12.75M7.25001 19.5C6.17944 19.5012 5.14353 19.1207 4.32831 18.4267C3.51309 17.7328 2.97196 16.771 2.80212 15.714C2.63227 14.657 2.84484 13.574 3.40163 12.6596C3.95842 11.7453 4.82297 11.0593 5.84001 10.725C5.57871 9.38621 5.84877 7.99825 6.59299 6.85506C7.33722 5.71188 8.49718 4.90324 9.82723 4.6004C11.1573 4.29755 12.553 4.52428 13.7188 5.23256C14.8846 5.94084 15.7289 7.07507 16.073 8.39505C16.605 8.22202 17.1748 8.2012 17.718 8.33494C18.2612 8.46868 18.7562 8.75165 19.1471 9.15189C19.538 9.55212 19.8092 10.0537 19.93 10.5999C20.0509 11.1461 20.0166 11.7153 19.831 12.243C20.6497 12.5557 21.333 13.1451 21.7626 13.909C22.1921 14.6728 22.3407 15.563 22.1826 16.4249C22.0245 17.2869 21.5697 18.0663 20.8971 18.628C20.2244 19.1897 19.3763 19.4982 18.5 19.5H7.25001Z" stroke="#5E51D9" stroke-width="1.5" stroke-linecap="round" stroke-linejoin="round"/>
</g>
</svg>
